<?xml version="1.0" encoding="utf-8"?>
<!-- Generator: Adobe Illustrator 21.1.0, SVG Export Plug-In . SVG Version: 6.00 Build 0)  -->
<svg version="1.1" id="Layer_8" xmlns="http://www.w3.org/2000/svg" xmlns:xlink="http://www.w3.org/1999/xlink" x="0px" y="0px"
	 viewBox="0 0 759.1 345.4" style="enable-background:new 0 0 759.1 345.4;" xml:space="preserve">
<style type="text/css">
	.st0{fill:#99424F;}
</style>
<g>
	<path class="st0" d="M304.6,170.1c0-20.8-14.3-38.3-33.5-43.3L314.1,0H101l43.1,127.2c-18.6,5.4-32.3,22.6-32.3,43
		c0,15,7.5,28.3,18.9,36.5c-4.5,6.4-9.7,12.3-15.6,17.9C104,235,91.7,243,78.4,248.3c-12-8.1-17.2-22.4-12.5-35.2
		c18.3-5.6,31.6-22.7,31.6-42.8c0-24.7-20.1-44.7-44.7-44.7C28.1,125.6,8,145.7,8,170.4c0,12.2,5,23.4,13,31.4
		c-0.7,1.4-1.4,2.8-2.1,4.3C12.2,219.9,4.6,235.5,1.7,253c-5.8,35,3.7,63.1,26.6,79c12.9,8.9,27.1,13.4,42.4,13.4
		c26.3,0,53-13.2,78.8-26c18.4-9.1,37.4-18.6,56.1-23.2c6.9-1.7,14.1-2.7,21.7-3.8c15.4-2.2,31.3-4.5,45.6-12.8
		c16.7-9.7,28.1-25.9,31.4-44.5c2.5-14.3,0-28.7-6.4-41.3C302.2,186.9,304.6,178.8,304.6,170.1z M285.1,170.1
		c0,13.9-11.3,25.2-25.2,25.2c-13.9,0-25.2-11.3-25.2-25.2c0-4.5,1.2-8.8,3.3-12.5c0.8-1.4,1.8-2.8,2.8-4l0,0c1-1.2,2.2-2.3,3.5-3.3
		l0.1-0.1c0.8-0.6,1.7-1.2,2.6-1.8c0,0,0.1,0,0.1-0.1c0.4-0.2,0.8-0.5,1.2-0.7c0.1,0,0.2-0.1,0.3-0.1c0.4-0.2,0.9-0.4,1.4-0.6l0,0
		c0.5-0.2,1-0.4,1.4-0.6c0.1,0,0.2-0.1,0.3-0.1c0.4-0.1,0.8-0.3,1.2-0.4c0.1,0,0.3-0.1,0.4-0.1c0.5-0.1,0.9-0.2,1.4-0.3h0.1
		c0.5-0.1,1-0.2,1.5-0.3c0.1,0,0.3,0,0.4-0.1c0.4,0,0.8-0.1,1.2-0.1c0.2,0,0.3,0,0.5,0c0.5,0,1-0.1,1.6-0.1c0.4,0,0.8,0,1.3,0
		c0.4,0,0.7,0,1.1,0.1c0.1,0,0.1,0,0.2,0c0.8,0.1,1.6,0.2,2.4,0.4C276.4,147.7,285.1,157.9,285.1,170.1z M128.9,20h157.3
		l-36.1,106.5c-1.5,0.3-3,0.8-4.5,1.3l-38-77.5l-38.1,77c-1.5-0.5-3.1-0.8-4.7-1.1L128.9,20z M200.4,161.4
		c-1.9-9.4-6.7-17.8-13.5-24l20.7-41.8l20.9,42.7c-6.2,6.2-10.7,14.1-12.5,23.1H200.4z M150.3,145.6c0.5-0.1,0.9-0.2,1.4-0.3
		c0.1,0,0.2,0,0.3,0c0.4-0.1,0.8-0.1,1.2-0.2c0.1,0,0.2,0,0.4,0c0.4,0,0.7-0.1,1.1-0.1c0.1,0,0.3,0,0.4,0c0.5,0,1,0,1.5,0s1,0,1.5,0
		c0.2,0,0.3,0,0.5,0c0.4,0,0.7,0.1,1,0.1c0.2,0,0.3,0,0.5,0.1c0.4,0.1,0.7,0.1,1.1,0.2c0.1,0,0.2,0,0.4,0.1c0.5,0.1,1,0.2,1.4,0.3
		c0.1,0,0.1,0,0.1,0c0.4,0.1,0.8,0.2,1.2,0.4c0.1,0,0.2,0.1,0.4,0.1c0.3,0.1,0.7,0.2,1,0.4c0.1,0,0.2,0.1,0.3,0.1
		c0.4,0.2,0.8,0.3,1.2,0.5h0.1c0.5,0.2,0.9,0.4,1.3,0.7c0,0,0,0,0.1,0c0.4,0.2,0.8,0.5,1.2,0.7c0.1,0,0.1,0.1,0.2,0.1
		c0.4,0.2,0.7,0.5,1.1,0.7l0.1,0.1c1.2,0.9,2.3,1.9,3.4,2.9l0.1,0.1c1,1.1,2,2.3,2.8,3.6c2.6,4,4.1,8.7,4.1,13.8
		c0,13.9-11.3,25.2-25.2,25.2s-25.2-11.3-25.2-25.2C131.2,158.3,139.3,148.4,150.3,145.6z M51.9,144.9c13.9,0,25.2,11.3,25.2,25.2
		s-11.3,25.2-25.2,25.2S26.7,184,26.7,170.1S38,144.9,51.9,144.9z M284.5,231.6c-2.2,12.8-10.1,24-21.7,30.7
		c-10.9,6.3-24.3,8.3-38.4,10.3c-7.7,1.1-15.8,2.3-23.6,4.2c-20.8,5.1-40.8,15.1-60.2,24.7c-24.8,12.3-48.2,23.9-69.9,23.9
		c-11.3,0-21.4-3.2-31-9.9c-22-15.2-20.9-43.7-18.3-59.3c2.4-14.6,9.1-28.3,15.5-41.4c0.4-0.8,0.7-1.5,1.1-2.3
		c2.2,0.8,4.5,1.4,6.9,1.8c-3.8,21.2,7,43.1,28,53.9l3.8,2l4.1-1.5c17.5-6.2,33.7-16.3,48-29.8c8.1-7.6,15-15.8,20.8-24.7
		c2.3,0.4,4.6,0.5,6.9,0.5c20.8,0,38.3-14.3,43.3-33.5h16.8c5,19.3,22.5,33.5,43.3,33.5c8.3,0,16-2.3,22.6-6.2
		C285.1,216,285.9,223.8,284.5,231.6z"/>
	<g>
		<path class="st0" d="M479.3,221c-1.4,4.6-3.7,8.8-6.9,12.4c-3.2,3.6-7.5,6.5-12.9,8.7c-5.4,2.2-12,3.3-19.9,3.3
			c-13.2,0-23.4-3.5-30.5-10.4c-7.1-6.9-10.7-17.2-10.7-30.6v-8.7h18.8v6c0,4.1,0.3,7.9,1,11.3c0.7,3.4,1.8,6.4,3.5,8.9
			c1.7,2.5,4,4.5,6.9,5.9c3,1.4,6.8,2.1,11.4,2.1c8.6,0,14.5-2.3,17.8-6.9c3.2-4.6,4.9-10.8,4.9-18.6V100.6h18.8V207
			C481.4,211.7,480.7,216.4,479.3,221z"/>
		<path class="st0" d="M582.2,235.7c-7.7,5.8-17.3,8.7-29,8.7c-8.2,0-15.3-1.3-21.3-4c-6-2.6-11.1-6.3-15.2-11.1
			c-4.1-4.8-7.2-10.4-9.2-17.1c-2.1-6.6-3.2-13.8-3.5-21.6c0-7.8,1.2-14.9,3.6-21.4c2.4-6.5,5.7-12.1,10-16.9
			c4.3-4.8,9.4-8.5,15.3-11.1c5.9-2.6,12.3-4,19.3-4c9.1,0,16.7,1.9,22.7,5.7c6,3.8,10.8,8.6,14.5,14.4c3.6,5.8,6.1,12.2,7.5,19
			c1.4,6.9,1.9,13.4,1.7,19.6h-76.8c-0.1,4.5,0.4,8.8,1.6,12.8c1.2,4,3.1,7.6,5.8,10.7c2.6,3.1,6,5.6,10.1,7.4
			c4.1,1.9,8.9,2.8,14.5,2.8c7.1,0,13-1.7,17.6-5c4.6-3.3,7.6-8.3,9-15.1h16.7C594.8,221.2,589.9,229.9,582.2,235.7z M578.1,169.9
			c-1.5-3.6-3.6-6.6-6.1-9.2c-2.6-2.6-5.6-4.6-9.1-6.1c-3.5-1.5-7.4-2.3-11.6-2.3c-4.4,0-8.3,0.8-11.8,2.3c-3.5,1.5-6.5,3.6-9,6.2
			c-2.5,2.6-4.5,5.7-6,9.2c-1.5,3.5-2.3,7.2-2.6,11.2h58.9C580.5,177.2,579.6,173.4,578.1,169.9z"/>
		<path class="st0" d="M629,219.3c1.6,2.6,3.7,4.6,6.2,6.1c2.6,1.5,5.5,2.6,8.7,3.3c3.2,0.7,6.6,1,10,1c2.6,0,5.4-0.2,8.3-0.6
			c2.9-0.4,5.6-1.1,8-2.2c2.4-1.1,4.5-2.6,6-4.7c1.6-2,2.4-4.7,2.4-7.8c0-4.4-1.7-7.7-5-9.9c-3.3-2.2-7.4-4.1-12.4-5.5
			c-5-1.4-10.3-2.6-16.2-3.8c-5.8-1.1-11.2-2.7-16.2-4.8c-5-2-9.1-4.9-12.4-8.6c-3.3-3.7-5-8.9-5-15.5c0-5.2,1.2-9.6,3.5-13.3
			c2.3-3.7,5.3-6.7,8.9-9c3.6-2.3,7.7-4,12.3-5.2c4.6-1.1,9.1-1.7,13.6-1.7c5.8,0,11.2,0.5,16.1,1.5c4.9,1,9.2,2.7,13,5.2
			c3.8,2.4,6.8,5.8,9,9.9c2.2,4.2,3.6,9.4,4,15.6h-16.9c-0.3-3.3-1.1-6-2.6-8.2c-1.5-2.2-3.3-3.9-5.6-5.3c-2.2-1.3-4.7-2.3-7.4-2.9
			c-2.7-0.6-5.5-0.9-8.2-0.9c-2.5,0-5.1,0.2-7.6,0.6c-2.6,0.4-4.9,1.1-7,2.1c-2.1,1-3.8,2.3-5.2,4c-1.3,1.7-2,3.8-2,6.4
			c0,2.9,1,5.3,3.1,7.2c2,1.9,4.7,3.5,7.8,4.8c3.2,1.3,6.7,2.3,10.7,3.2c4,0.9,7.9,1.8,11.9,2.7c4.2,0.9,8.4,2.1,12.4,3.4
			c4,1.3,7.6,3.1,10.7,5.3c3.1,2.2,5.6,4.9,7.5,8.2c1.9,3.3,2.9,7.4,2.9,12.3c0,6.2-1.3,11.4-3.9,15.5c-2.6,4.1-6,7.4-10.1,9.9
			c-4.2,2.5-8.9,4.3-14.1,5.3c-5.2,1-10.4,1.5-15.6,1.5c-5.7,0-11.1-0.6-16.3-1.8c-5.2-1.2-9.7-3.1-13.7-5.9
			c-4-2.7-7.1-6.3-9.5-10.7c-2.4-4.4-3.7-9.8-4-16.2h16.9C626.5,213.6,627.4,216.8,629,219.3z"/>
		<path class="st0" d="M759.1,139.7v14.9h-20.4v63.7c0,2,0.2,3.6,0.5,4.8c0.3,1.2,1,2.1,1.9,2.8c0.9,0.7,2.2,1.1,3.9,1.3
			c1.7,0.2,3.8,0.3,6.4,0.3h7.7v14.9h-12.9c-4.4,0-8.1-0.3-11.2-0.9c-3.1-0.6-5.6-1.7-7.5-3.3c-1.9-1.6-3.3-3.8-4.3-6.7
			c-0.9-2.9-1.4-6.7-1.4-11.5v-65.3h-17.5v-14.9h17.5V109h16.9v30.7H759.1z"/>
	</g>
</g>
</svg>
